<?xml version="1.0" encoding="UTF-8"?>
<svg width="50px" height="50px" viewBox="0 0 50 50" version="1.1" xmlns="http://www.w3.org/2000/svg" xmlns:xlink="http://www.w3.org/1999/xlink">
    <!-- Generator: Sketch 47.1 (45422) - http://www.bohemiancoding.com/sketch -->
    <title>停车位-01</title>
    <desc>Created with Sketch.</desc>
    <defs></defs>
    <g id="Page-1" stroke="none" stroke-width="1" fill="none" fill-rule="evenodd">
        <g id="商铺详情-出售" transform="translate(-198.000000, -1307.000000)" fill-rule="nonzero" fill="#B7B7B7">
            <g id="Group" transform="translate(0.000000, 1089.000000)">
                <g id="停车位-01" transform="translate(198.000000, 218.000000)">
                    <path d="M20.4809384,50 L8,50 L8,0 L19.8123167,0 L19.8123167,1.2605042 L9.3372434,1.2605042 L9.3372434,48.7394958 L19.143695,48.7394958 L19.143695,29.6218487 L20.4809384,29.6218487 L20.4809384,50 Z M29.6187683,30.8823529 L19.8123167,30.8823529 L19.8123167,29.6218487 L29.6187683,29.6218487 C37.9273336,29.6218487 44.6627566,23.2729455 44.6627566,15.4411765 C44.6627566,7.60940743 37.9273336,1.2605042 29.6187683,1.2605042 L18.0293255,1.2605042 L18.0293255,1.42108547e-14 L29.6187683,1.42108547e-14 C38.6658728,1.55169995e-14 46,6.91325019 46,15.4411765 C46,23.9691028 38.6658728,30.8823529 29.6187683,30.8823529 Z M27.3900293,22.0588235 L20.7038123,22.0588235 C20.1022457,22.0589656 19.5031043,21.9869589 18.9208211,21.8445378 L19.2595894,20.6260504 C19.7313288,20.7408252 20.2166123,20.7987105 20.7038123,20.7983193 L27.3900293,20.7983193 C30.5903656,20.7983193 33.1847507,18.3528159 33.1847507,15.3361345 C33.1847507,12.319453 30.5903656,9.87394958 27.3900293,9.87394958 L20.7038123,9.87394958 C20.3129452,9.87468247 19.9231596,9.91269116 19.5404106,9.98739496 L19.2685044,8.75210084 C19.7407378,8.6602663 20.221634,8.61381015 20.7038123,8.61344538 L27.3900293,8.61344538 C31.3289047,8.61344543 34.521994,11.6232958 34.521994,15.3361345 C34.521994,19.0489731 31.3289047,22.0588235 27.3900293,22.0588235 Z M19.143695,8.82352941 L20.4809384,8.82352941 L20.4809384,21.8487395 L19.143695,21.8487395 L19.143695,8.82352941 Z" id="Shape"></path>
                </g>
            </g>
        </g>
    </g>
</svg>