<?xml version="1.0" encoding="UTF-8"?>
<svg width="82px" height="50px" viewBox="0 0 82 50" version="1.1" xmlns="http://www.w3.org/2000/svg" xmlns:xlink="http://www.w3.org/1999/xlink">
    <!-- Generator: Sketch 47.1 (45422) - http://www.bohemiancoding.com/sketch -->
    <title>煤气</title>
    <desc>Created with Sketch.</desc>
    <defs></defs>
    <g id="Page-1" stroke="none" stroke-width="1" fill="none" fill-rule="evenodd">
        <g id="商铺详情-出售" transform="translate(-484.000000, -1184.000000)" fill-rule="nonzero" fill="#B7B7B7">
            <g id="Group" transform="translate(0.000000, 1089.000000)">
                <g id="煤气" transform="translate(484.000000, 95.000000)">
                    <path d="M40.2107762,32.5555611 C34.5591788,32.5555611 29.9609319,27.9425526 29.9609319,22.2728942 C29.9609319,20.068351 31.4107522,18.6377755 32.9461208,17.1222804 C35.6340597,14.4681724 38.9803528,11.1667369 37.8507865,1.80176051 L37.8507865,1.80176051 C37.8091993,1.45879687 37.7121899,0.652388925 38.2935097,0.24914382 C38.4452046,0.145663403 38.8532991,-0.0613795345 39.4030192,0.225983949 C41.8892439,1.53607865 50.4605386,17.7557283 50.4605386,22.2729764 C50.4605385,27.9426347 45.8622916,32.5555611 40.2107762,32.5555611 Z M39.5108347,2.48300642 C40.4178934,11.9669852 36.7505277,15.586664 34.0517826,18.2500525 C32.5927118,19.6899083 31.5378058,20.7311183 31.5378058,22.2728942 C31.5378058,27.0697036 35.428416,30.973625 40.2106942,30.973625 C44.9929725,30.973625 48.8835826,27.0697036 48.8835826,22.2728942 C48.8836646,18.5558945 42.2319286,5.96052279 39.5108347,2.48300642 Z M63.8641305,32.5555611 C58.2125331,32.5555611 53.6142862,27.9425526 53.6142862,22.2728942 C53.6142862,20.068351 55.0641065,18.6377755 56.5994751,17.1222804 C59.287414,14.4681724 62.6337071,11.1667369 61.5041408,1.80176051 L61.5041408,1.80176051 C61.4625536,1.45879687 61.3655442,0.652388925 61.946864,0.24914382 C62.0977402,0.145663403 62.5082089,-0.0613795345 63.0563735,0.225983949 C65.5425982,1.53607865 74.1138929,17.7557283 74.1138929,22.2729764 C74.1139747,27.9426347 69.5157278,32.5555611 63.8641305,32.5555611 Z M63.164271,2.48300642 C64.0713296,11.9669852 60.4039639,15.586664 57.7052189,18.2500525 C56.246148,19.6899083 55.1912421,20.7311183 55.1912421,22.2728942 C55.1912421,27.0697036 59.0818522,30.973625 63.8641305,30.973625 C68.6464087,30.973625 72.5370189,27.0697036 72.5370189,22.2728942 C72.537019,18.5558945 65.885283,5.96052279 63.164271,2.48300642 Z M16.5573399,32.5555611 C10.9057426,32.5555611 6.30749568,27.9425526 6.30749568,22.2728942 C6.30749568,19.9771897 7.9706548,18.3010536 9.89709008,16.3575931 C12.8760572,13.3543619 16.5842733,9.61576276 15.7727506,1.78935931 L15.7727506,1.78935931 C15.7134806,1.21003331 15.7188838,0.571986276 16.2193214,0.235182263 C16.5218926,0.0312601926 16.8953584,0.0235402087 17.2418089,0.208901525 C19.3169102,1.31655249 26.8071022,17.7324864 26.8071022,22.2728943 C26.8071841,27.9426347 22.2089372,32.5555611 16.5573399,32.5555611 Z M17.4366464,2.85684992 C17.8232106,10.6090104 13.9101695,14.5546523 11.0143767,17.4745244 C9.26575112,19.2372227 7.88445144,20.6306766 7.88445144,22.2728942 C7.88445144,27.0697036 11.7750616,30.973625 16.5573398,30.973625 C21.3396181,30.973625 25.2302282,27.0697036 25.2302282,22.2728942 C25.2302283,18.4848544 19.8604904,6.78705201 17.4366464,2.85684992 Z M74.9024117,49.9571047 L7.09601448,49.9571047 C3.18305528,49.9571047 0,46.7638308 0,42.83831 C0,38.9127892 3.18305536,35.7195154 7.09601448,35.7195154 L74.9024117,35.7195154 C78.8153709,35.7195154 81.9984262,38.9127892 81.9984262,42.83831 C81.9984262,46.7638309 78.8153709,49.9571047 74.9024117,49.9571047 Z M7.09601448,37.3014515 C4.0531112,37.3014515 1.57687392,39.7856382 1.57687392,42.83831 C1.57687392,45.8909819 4.0531112,48.3751685 7.09601448,48.3751685 L74.9024117,48.3751685 C77.945315,48.3751685 80.4215522,45.8909819 80.4215522,42.83831 C80.4215522,39.7856382 77.945315,37.3014515 74.9024117,37.3014515 L7.09601448,37.3014515 Z" id="Shape"></path>
                </g>
            </g>
        </g>
    </g>
</svg>