<?xml version="1.0" encoding="UTF-8"?>
<svg width="50px" height="50px" viewBox="0 0 50 50" version="1.1" xmlns="http://www.w3.org/2000/svg" xmlns:xlink="http://www.w3.org/1999/xlink">
    <!-- Generator: Sketch 47.1 (45422) - http://www.bohemiancoding.com/sketch -->
    <title>明火</title>
    <desc>Created with Sketch.</desc>
    <defs></defs>
    <g id="Page-1" stroke="none" stroke-width="1" fill="none" fill-rule="evenodd">
        <g id="商铺详情-出售" transform="translate(-650.000000, -1307.000000)" fill-rule="nonzero" fill="#B7B7B7">
            <g id="Group" transform="translate(0.000000, 1089.000000)">
                <g id="明火" transform="translate(650.000000, 218.000000)">
                    <path d="M25.5858519,49.9775706 C25.5036945,49.9775706 25.4220865,49.9728259 25.3405284,49.9668327 L25.1993875,49.9584921 L25.1708197,48.7402152 C26.9726389,48.6222981 28.7476882,47.7815457 29.5878912,46.6477736 C30.060109,46.0106417 30.2137358,45.3211189 30.0440271,44.5982336 C29.6742439,43.0202622 29.792161,40.7182567 29.9975795,38.8354289 C28.9638945,39.8453406 28.008771,39.7357641 27.9444436,39.7286222 L27.2781445,39.6393228 L27.4311721,38.9855097 C28.0909285,36.1570976 26.1176026,34.4981674 24.5045207,33.6395351 C25.1243721,36.0308898 23.9888519,39.6357268 23.8126005,40.1680768 L22.6246894,39.9977688 C22.605611,39.4297091 22.4150757,38.9973963 22.0417465,38.6770573 C21.6850485,38.3698036 21.1884582,38.1935523 20.6900699,38.097111 C20.7704793,38.2257161 20.8353562,38.3591157 20.8848004,38.4984586 C21.2236186,39.4535821 20.775224,40.3920244 20.3006588,41.3864037 C19.9017085,42.2236101 19.4884743,43.0881856 19.4884743,44.0326211 C19.4884743,46.1119276 21.2545837,48.0817074 23.5964941,48.6128588 L23.3803378,49.8109085 C15.0433843,48.6878743 8.51304464,41.7972906 8.51304464,34.1242888 C8.51304464,30.8957277 9.84029871,28.0590249 11.0115786,25.556895 C13.0206142,21.2636839 14.3479182,18.4269312 8.85720675,15.7712244 L7,14.8720878 L9.04714266,14.617225 C9.3180873,14.5803167 15.7293112,13.8228703 19.4246962,16.983558 C20.3518012,17.7755154 21.0252922,18.7413268 21.4391257,19.8727016 C22.7556418,14.7886817 25.0225369,3.46789137 19.8480689,1.14446007 L20.2565585,0 C20.4387532,0.0488449405 38.1249192,4.9851313 35.4906383,19.4379916 C36.9101883,19.161703 40.2661559,17.6945066 42.6878763,10.1572518 L43.8674469,10.4585623 C43.8358824,10.622927 40.7603489,27.0097575 42.6431767,35.2067687 C43.3094757,38.1066003 42.6205522,40.946949 40.6507724,43.4204611 C37.5276424,47.342091 31.4736658,49.9775706 25.5858519,49.9775706 Z M30.4941698,35.518767 L31.6719923,35.8260207 C31.6612544,35.8820076 30.5787245,41.5352359 31.2313389,44.3195477 C31.4826058,45.3925383 31.2533641,46.4488977 30.5673873,47.3742048 C30.3155211,47.7148209 30.0046715,48.0315639 29.6480235,48.3185904 C33.7280749,47.4504189 37.5455222,45.3627719 39.6968974,42.6617662 C41.4517196,40.4574007 42.0430031,38.0410741 41.4546663,35.48061 C40.1655192,29.8678861 41.0682018,20.8693782 41.8572125,15.261399 C38.597087,21.1468655 34.8386232,20.73478 34.6504353,20.7038148 L33.9888809,20.6145155 L34.1377631,19.9642983 C36.5106387,9.59393671 27.5907422,4.28132455 22.7961462,2.22224534 C26.5135563,8.22443031 22.116712,22.0508466 21.8976089,22.7272842 L20.7084992,22.5593735 C20.6441717,20.5955869 19.9457089,19.0318993 18.6327387,17.9100637 C16.5438931,16.1260744 13.3308145,15.7640325 11.2461641,15.7402093 C15.5542585,18.7257943 13.8792464,22.3068581 12.1161335,26.0737125 C10.9990426,28.4614713 9.73252009,31.1672216 9.73252009,34.1242388 C9.73252009,39.9477751 13.8429373,45.2866077 19.6158307,47.5755279 C18.7678864,46.5680135 18.2688988,45.3294595 18.2688988,44.0325712 C18.2688988,42.811897 18.763741,41.7758147 19.2001991,40.8611956 C19.5783229,40.0692382 19.9052045,39.3844601 19.7354958,38.9057496 C19.6193766,38.5794174 19.2430508,38.2638731 18.6172562,37.9673073 L16.7171478,37.0657734 L18.8047948,36.8109107 C18.9089774,36.7978254 21.3884827,36.5107989 22.8324553,37.7481543 C22.9366378,37.8374537 23.0325298,37.9315476 23.1206804,38.0315849 C23.5481986,36.0487197 23.8030613,33.4037509 22.5526207,32.853521 L22.953369,31.705465 C25.1910969,32.2949506 29.0335161,34.3897895 28.769164,38.2721137 C29.2603604,37.9517748 29.9379966,37.2146057 30.4941698,35.518767 Z" id="Shape"></path>
                </g>
            </g>
        </g>
    </g>
</svg>