<?xml version="1.0" encoding="UTF-8"?>
<svg width="50px" height="50px" viewBox="0 0 50 50" version="1.1" xmlns="http://www.w3.org/2000/svg" xmlns:xlink="http://www.w3.org/1999/xlink">
    <!-- Generator: Sketch 47.1 (45422) - http://www.bohemiancoding.com/sketch -->
    <title>排污管道</title>
    <desc>Created with Sketch.</desc>
    <defs></defs>
    <g id="Page-1" stroke="none" stroke-width="1" fill="none" fill-rule="evenodd">
        <g id="商铺详情-出售" transform="translate(-50.000000, -1307.000000)" fill-rule="nonzero" fill="#B7B7B7">
            <g id="Group" transform="translate(0.000000, 1089.000000)">
                <g id="排污管道" transform="translate(50.000000, 218.000000)">
                    <path d="M17.7261253,46.466342 C13.5333361,46.466342 9.82051727,46.4593764 8.11276072,46.4390156 C6.55500871,46.4188333 5.29754158,45.8515864 4.37467447,44.7547782 C2.49688706,42.5221665 2.75816746,38.8991213 2.77058049,38.7459385 L2.76776687,13.9584179 L20.4936784,13.9584179 L20.4749761,25.8227954 C20.3982912,26.1978047 20.3034005,27.3225347 20.7883913,27.9749162 C21.0909381,28.3811216 21.6165332,28.5874094 22.3497293,28.5874094 L37.1244301,28.5874094 L37.1244301,46.4365151 L36.3853309,46.438837 C36.2311887,46.4397895 26.0379979,46.4662825 17.726346,46.4662825 L17.7261253,46.466342 Z M4.2502132,15.5584136 L4.2502132,38.8139271 C4.24519282,38.9107901 4.03229563,41.9730182 5.47645466,43.683689 C6.11994594,44.4459716 6.98791989,44.8241362 8.13013896,44.8390198 C12.6920088,44.8952802 31.6456514,44.8499147 35.6415976,44.8405082 L35.6415976,30.1872265 L22.3495086,30.1872265 C21.139211,30.1872265 20.2226883,29.7764369 19.6254838,28.9669433 C18.7126023,27.731181 18.9363678,26.0008043 19.0109011,25.5649505 L19.0109011,15.558116 L4.25004769,15.558116 L4.2502132,15.5584136 Z M23.0467345,11.3251971 L0.0493693316,11.3251971 L0.0493693316,0.0247324614 L23.0466793,0.0247324614 L23.0466793,11.3251971 L23.0467345,11.3251971 Z M1.53198116,9.72537996 L21.564233,9.72537996 L21.564233,1.62466864 L1.53198116,1.62466864 L1.53198116,9.72537996 Z M50.0493693,50.0247325 L39.5782371,50.0247325 L39.5782371,25.209171 L50.0493693,25.209171 L50.0493693,50.0247325 Z M41.0607937,48.4247963 L48.566923,48.4247963 L48.566923,26.8089881 L41.0607937,26.8089881 L41.0607937,48.4247963 Z" id="Shape"></path>
                </g>
            </g>
        </g>
    </g>
</svg>