<?xml version="1.0" encoding="UTF-8"?>
<svg width="50px" height="50px" viewBox="0 0 50 50" version="1.1" xmlns="http://www.w3.org/2000/svg" xmlns:xlink="http://www.w3.org/1999/xlink">
    <!-- Generator: Sketch 47.1 (45422) - http://www.bohemiancoding.com/sketch -->
    <title>上水</title>
    <desc>Created with Sketch.</desc>
    <defs></defs>
    <g id="Page-1" stroke="none" stroke-width="1" fill="none" fill-rule="evenodd">
        <g id="商铺详情-出售" transform="translate(-50.000000, -1184.000000)" fill-rule="nonzero" fill="#5D9CF9">
            <g id="Group" transform="translate(0.000000, 1089.000000)">
                <g id="上水" transform="translate(50.000000, 95.000000)">
                    <path d="M13.3774748,9.8719317 L2.83144208,9.8719317 C1.2676798,9.8719317 0,8.6296055 0,7.09711846 C-3.86896269e-16,5.56463143 1.2676798,4.32230523 2.83144208,4.32230523 L13.3774748,4.32230523 C13.738343,4.32230523 14.0308845,4.60899589 14.0308845,4.96264674 C14.0308845,5.3162976 13.738343,5.60298826 13.3774748,5.60298826 L2.83144208,5.60298826 C1.98941623,5.60298826 1.30681942,6.27193314 1.30681942,7.09711846 C1.30681942,7.92230379 1.98941623,8.59124867 2.83144208,8.59124867 L13.3774748,8.59124867 C13.738343,8.59124867 14.0308845,8.87793933 14.0308845,9.23159018 C14.0308845,9.58524104 13.738343,9.8719317 13.3774748,9.8719317 L13.3774748,9.8719317 Z M35.0663211,9.8719317 L25.2651754,9.8719317 C24.9043072,9.8719317 24.6117657,9.58524104 24.6117657,9.23159018 C24.6117657,8.87793933 24.9043072,8.59124867 25.2651754,8.59124867 L35.0663211,8.59124867 C35.9083469,8.59124867 36.5909437,7.92230379 36.5909437,7.09711846 C36.5909437,6.27193314 35.9083469,5.60298826 35.0663211,5.60298826 L25.2651754,5.60298826 C24.9043072,5.60298826 24.6117657,5.3162976 24.6117657,4.96264674 C24.6117657,4.60899589 24.9043072,4.32230523 25.2651754,4.32230523 L35.0663211,4.32230523 C36.6300834,4.32230523 37.8977632,5.56463143 37.8977632,7.09711846 C37.8977632,8.6296055 36.6300834,9.8719317 35.0663211,9.8719317 Z M13.9698996,5.24866596 L12.719709,4.87299893 C13.6085011,2.024104 16.2788785,0.0683477281 19.3186109,0.0400326858 C22.3583433,0.0117176435 25.0661727,1.91737603 26.0100625,4.74919957 L24.7685841,5.17609392 C24.004187,2.87432573 21.8056414,1.32361921 19.3357307,1.34412376 C16.8658199,1.3646283 14.6943967,2.95161314 13.9698996,5.26574173 L13.9698996,5.24866596 Z M19.3844881,13.7139808 C16.6122691,13.7149584 14.1030286,12.1057604 12.9941411,9.61579509 L14.1920589,9.10352188 C15.1371152,11.2286666 17.3304989,12.5542423 19.6924721,12.4277073 C22.0544453,12.3011723 24.0873169,10.7491889 24.7903644,8.5357524 L26.0361989,8.91568837 C25.1374011,11.7749208 22.4373649,13.7226247 19.3844881,13.7139808 Z M15.8996363,12.8601921 L22.4337334,12.8601921 L22.4337334,15.8484525 L15.8996363,15.8484525 L15.8996363,12.8601921 Z M29.002679,35.9124867 L8.89508418,35.9124867 C5.18635463,35.9101319 2.18043517,32.9643308 2.17803237,29.3297759 L2.17803237,21.3639274 C2.18043517,17.7293725 5.18635463,14.7835714 8.89508418,14.7812166 L29.002679,14.7812166 C32.7114085,14.7835714 35.717328,17.7293725 35.7197308,21.3639274 L34.4129114,21.3639274 C34.4105093,18.436674 31.9896723,16.0642537 29.002679,16.0618997 L8.89508418,16.0618997 C5.90809088,16.0642537 3.48725387,18.436674 3.48485178,21.3639274 L3.48485178,29.3297759 C3.48725387,32.2570293 5.90809088,34.6294496 8.89508418,34.6318036 L29.002679,34.6318036 C31.7703631,34.6112564 34.0842338,32.5638178 34.386775,29.8676628 L35.6935944,29.9957311 C35.3543206,33.3639975 32.4563599,35.9266551 29.002679,35.9124867 L29.002679,35.9124867 Z M49.8769412,35.9124867 L40.7858341,35.9124867 L40.7858341,34.6318036 L48.5701218,34.6318036 L48.5701218,22.2518677 L35.937534,22.2518677 L35.937534,22.3073639 L34.6307146,22.3073639 L34.6307146,20.9711846 L49.8769412,20.9711846 L49.8769412,35.9124867 Z M41.6004182,35.2721451 L40.2935988,35.2721451 L40.2935988,30.7897545 L34.1951081,30.7897545 L34.1951081,29.5090715 L41.6004182,29.5090715 L41.6004182,35.2721451 Z M25.2651754,50 L12.6325877,50 L12.6325877,35.2721451 L25.2651754,35.2721451 L25.2651754,50 Z M13.9394071,48.719317 L23.958356,48.719317 L23.958356,36.5528282 L13.9394071,36.5528282 L13.9394071,48.719317 Z M44.8674667,49.3596585 C42.2233354,49.3596585 40.0757955,46.3713981 40.0757955,42.7427962 C40.0757955,39.1141942 44.3273147,36.339381 44.5059134,36.2326574 L44.8674667,36.0021345 L45.2290201,36.2326574 C45.4119748,36.3479189 49.6591379,39.1398079 49.6591379,42.7427962 C49.6591379,46.3457844 47.511598,49.3596585 44.8674667,49.3596585 Z M44.8674667,37.5560299 C43.9134886,38.2646745 41.3826149,40.3692636 41.3826149,42.7427962 C41.3826149,45.6371398 42.9769346,48.0789755 44.8674667,48.0789755 C46.7579988,48.0789755 48.3523185,45.6371398 48.3523185,42.7427962 C48.3523185,40.3607257 45.825801,38.2646745 44.8674667,37.5560299 Z" id="Shape"></path>
                </g>
            </g>
        </g>
    </g>
</svg>