<?xml version="1.0" encoding="UTF-8"?>
<svg width="50px" height="50px" viewBox="0 0 50 50" version="1.1" xmlns="http://www.w3.org/2000/svg" xmlns:xlink="http://www.w3.org/1999/xlink">
    <!-- Generator: Sketch 47.1 (45422) - http://www.bohemiancoding.com/sketch -->
    <title>下水</title>
    <desc>Created with Sketch.</desc>
    <defs></defs>
    <g id="Page-1" stroke="none" stroke-width="1" fill="none" fill-rule="evenodd">
        <g id="商铺详情-出售" transform="translate(-200.000000, -1184.000000)" fill-rule="nonzero" fill="#5D9CF9">
            <g id="Group" transform="translate(0.000000, 1089.000000)">
                <g id="下水" transform="translate(200.000000, 95.000000)">
                    <path d="M13.9559379,49.9593721 C11.977929,49.9593721 10.3688699,48.170364 10.3688699,45.9717556 C10.3688699,43.7725362 11.977929,41.9835281 13.9559379,41.9835281 C15.9333972,41.9835281 17.5418566,43.7725362 17.5418566,45.9717556 C17.5418566,48.1704196 15.9333972,49.9593721 13.9559379,49.9593721 Z M13.9559379,43.2469946 C12.6043542,43.2469946 11.5051995,44.4690733 11.5051995,45.9718112 C11.5051995,47.473327 12.6043543,48.6960168 13.9559379,48.6960168 C15.3064223,48.6960168 16.4055771,47.473327 16.4055771,45.9718112 C16.4055271,44.4690178 15.3064223,43.2469946 13.9559379,43.2469946 Z M40.7120472,33.2187605 C38.4510802,33.2187605 36.6112276,31.181759 36.6112276,28.6784365 C36.6112276,26.175114 38.4510802,24.1381124 40.7120472,24.1381124 C42.9735639,24.1381124 44.8134165,26.175114 44.8134165,28.6784365 C44.8134165,31.181759 42.9736139,33.2187605 40.7120472,33.2187605 Z M40.7120472,25.4015233 C39.0775054,25.4015233 37.7475072,26.8715955 37.7475072,28.6784364 C37.7475072,30.4852774 39.0774555,31.9553495 40.7120472,31.9553495 C42.3471886,31.9553495 43.6771369,30.4852774 43.6771369,28.6784364 C43.6771369,26.8715955 42.3471886,25.4015233 40.7120472,25.4015233 Z M43.3697453,41.0267757 C39.7144236,41.0267757 36.7410396,37.7381407 36.7410396,33.6962478 L37.8773691,33.6962478 C37.8773691,37.0416591 40.3413985,39.7633647 43.3697453,39.7633647 C46.3980921,39.7633647 48.8615719,37.0416591 48.8615719,33.6962478 L49.9979015,33.6962478 C49.9979014,37.7381407 47.0245174,41.0267757 43.3697453,41.0267757 Z M31.1227488,41.0267757 C27.4674271,41.0267757 24.494043,37.7381407 24.494043,33.6962478 L25.6303726,33.6962478 C25.6303726,37.0416591 28.094402,39.7633647 31.1227488,39.7633647 C34.1510956,39.7633647 36.6145753,37.0416591 36.6145753,33.6962478 L37.7509049,33.6962478 C37.7508549,37.7381407 34.7774709,41.0267757 31.1227488,41.0267757 Z M18.8757023,41.0267757 C15.2203806,41.0267757 12.2469965,37.7381407 12.2469965,33.6962478 L13.3833261,33.6962478 C13.3833261,37.0416591 15.8473555,39.7633647 18.8757023,39.7633647 C21.9040491,39.7633647 24.3680785,37.0416591 24.3680785,33.6962478 L25.5044081,33.6962478 C25.504408,37.7381407 22.531024,41.0267757 18.8757023,41.0267757 Z M6.62870576,41.0267757 C2.97338408,41.0267757 0,37.7381407 0,33.6962478 L1.13632959,33.6962478 C1.13632959,37.0416591 3.60035898,39.7633647 6.62870576,39.7633647 C9.65705254,39.7633647 12.1210819,37.0416591 12.1210819,33.6962478 L13.2574115,33.6962478 C13.2573615,37.7381407 10.2839774,41.0267757 6.62870576,41.0267757 Z M24.5550517,27.6124648 C20.0613983,27.6124648 16.4055271,23.5656276 16.4055271,18.5910373 C16.4055271,17.3788472 16.6202315,16.2012118 17.0430448,15.0901857 L24.3603337,0.00897448426 L32.0676581,15.0901301 C32.4904714,16.199934 32.7046262,17.3781806 32.7046262,18.5909818 C32.7045763,23.5656276 29.0487549,27.6124648 24.5550517,27.6124648 Z M24.3858664,2.61596091 L18.0662011,15.6361156 C17.7260817,16.5367584 17.5418566,17.5491205 17.5418566,18.5910373 C17.5418566,22.8685906 20.6878237,26.3490538 24.5550517,26.3490538 C28.4222797,26.3490538 31.5682467,22.868535 31.5682467,18.5909818 C31.5682467,17.5601757 31.3884686,16.5595356 31.033959,15.6157273 L24.3858664,2.61596091 Z" id="Shape"></path>
                </g>
            </g>
        </g>
    </g>
</svg>