<?xml version="1.0" encoding="UTF-8"?>
<svg width="54px" height="54px" viewBox="0 0 54 54" version="1.1" xmlns="http://www.w3.org/2000/svg" xmlns:xlink="http://www.w3.org/1999/xlink">
    <!-- Generator: Sketch 47.1 (45422) - http://www.bohemiancoding.com/sketch -->
    <title>close</title>
    <desc>Created with Sketch.</desc>
    <defs></defs>
    <g id="Page-1" stroke="none" stroke-width="1" fill="none" fill-rule="evenodd">
        <g id="写字楼详情-我要咨询" transform="translate(-348.000000, -828.000000)" fill-rule="nonzero" fill="#FFFFFF">
            <g id="close" transform="translate(348.000000, 828.000000)">
                <path d="M49.1627298,50.9551045 C48.6747864,50.9548646 48.2069155,50.7610771 47.8620075,50.4163582 L3.55328518,6.16274627 C2.8349161,5.44527068 2.8349161,4.2820129 3.55328518,3.56453731 C4.27165427,2.84706172 5.43636068,2.84706172 6.15472976,3.56453731 L50.4672777,47.8219701 C50.987071,48.3497388 51.1399301,49.1370605 50.8553166,49.8206171 C50.5707031,50.5041738 49.9039469,50.9510793 49.1627298,50.9551045" id="Shape"></path>
                <path d="M4.85400747,50.9551045 C4.10819662,50.9585031 3.43440862,50.5110345 3.14904586,49.8228244 C2.86368311,49.1346143 3.02343544,48.3423818 3.55328518,47.8181493 L47.8658331,3.56453731 C48.5929875,2.90390179 49.7116248,2.93072711 50.406196,3.62545613 C51.1007673,4.32018514 51.1259797,5.43746933 50.4634521,6.16274627 L6.15472976,50.4163582 C5.81006051,50.7614336 5.34203474,50.9552852 4.85400747,50.9551045" id="Shape"></path>
            </g>
        </g>
    </g>
</svg>