<?xml version="1.0" encoding="UTF-8"?>
<svg width="32px" height="32px" viewBox="0 0 32 32" version="1.1" xmlns="http://www.w3.org/2000/svg" xmlns:xlink="http://www.w3.org/1999/xlink">
    <!-- Generator: Sketch 47.1 (45422) - http://www.bohemiancoding.com/sketch -->
    <title>icon-search</title>
    <desc>Created with Sketch.</desc>
    <defs></defs>
    <g id="Page-1" stroke="none" stroke-width="1" fill="none" fill-rule="evenodd">
        <g id="首页" transform="translate(-659.000000, -401.000000)" fill-rule="nonzero" fill="#FFFFFF">
            <g id="搜索" transform="translate(30.000000, 385.000000)">
                <g id="icon-search" transform="translate(629.000000, 16.000000)">
                    <g id="搜索" transform="translate(4.000000, 4.000000)">
                        <path d="M19.3569259,17.9615924 L19.3569259,17.9615924 L23.6849752,22.3126784 C24.1104444,22.6971868 24.1104444,23.336699 23.6849752,23.7198722 C23.30352,24.1043806 22.6673167,24.1043806 22.2845278,23.7198722 L17.9137983,19.4128444 C17.0655273,20.1378029 16.1305619,20.6918688 15.1129035,21.1191003 C13.8391633,21.6718311 12.3960356,21.92817 10.952908,21.92817 C9.46843376,21.92817 8.06798639,21.629108 6.75156586,21.1191003 C5.43647911,20.5636994 4.20541917,19.7546297 3.2291073,18.7306091 C2.21144888,17.7065885 1.40452443,16.5116754 0.852348056,15.1472047 L0.809667761,15.1058166 C0.301505452,13.8254572 0.00407709127,12.4195985 0.00407709127,10.9696815 C0.00407709127,9.47704132 0.301505428,8.06984749 0.809667761,6.79082311 C1.36184414,5.42635243 2.16876858,4.23277437 3.186427,3.2087538 C5.13905075,1.20477094 7.89726519,0.0111928715 10.9115614,0.0111928715 C12.3533553,0.0111928715 13.796483,0.308919831 15.0702232,0.864320832 L15.0702232,0.864320832 L15.0702232,0.864320832 C16.38531,1.41838672 17.6163699,2.22879151 18.6353621,3.25147697 L18.6780424,3.29420011 C19.6530205,4.27549751 20.4599449,5.46907558 21.0121213,6.79082311 L21.0121213,6.83354626 C21.5216174,8.11257064 21.817712,9.51976446 21.817712,10.9696814 C21.817712,12.4623216 21.5202837,13.8695154 20.9681073,15.1485398 C20.5893196,16.1725604 20.0371432,17.1525227 19.3569259,17.9615924 L19.3569259,17.9615924 L19.3569259,17.9615924 Z M14.3486594,2.69741108 L14.3486594,2.69741108 C13.2883207,2.27151466 12.1439551,2.01517573 10.9542417,2.01517573 C8.49212189,2.01517573 6.2420698,2.99647313 4.62955469,4.61594762 C3.82396402,5.42635243 3.14508048,6.450373 2.67826469,7.51578161 C2.25279545,8.58252532 1.99804741,9.73338024 1.99804741,10.9256232 C1.99804741,12.1205364 2.2114489,13.2727264 2.6355844,14.3367999 L2.6355844,14.3808582 C3.10240019,15.4476019 3.73860343,16.4689523 4.58820814,17.2806922 C5.39379881,18.0897619 6.37011069,18.7719972 7.47312972,19.2419519 C8.49212189,19.6691834 9.68050151,19.9255223 10.8688812,19.9255223 C12.0572608,19.9255223 13.2456404,19.6705185 14.2632988,19.2419519 C15.3236375,18.7719972 16.3439635,18.1338201 17.1495541,17.3220802 L17.1495541,17.3220802 C17.9551448,16.5116754 18.6340283,15.48899 19.1008441,14.4222462 C19.5249796,13.3995608 19.7810614,12.2059827 19.7810614,11.0110695 C19.7810614,9.81749147 19.5263134,8.66663655 19.1448582,7.642616 L19.1008441,7.59989286 C18.6340283,6.53448425 18.0405054,5.55318683 17.2349147,4.74278204 L17.1922344,4.70005889 C16.4293241,3.80554285 15.4516784,3.16469556 14.3486594,2.69741108 L14.3486594,2.69741108 L14.3486594,2.69741108 L14.3486594,2.69741108 Z M6.235401,15.0924657 L6.235401,15.0924657 C6.47547769,15.3341185 6.446135,15.7253024 6.235401,15.9362479 C5.99532431,16.1792359 5.60586656,16.1471935 5.39513259,15.9362479 C4.73492169,15.2740391 4.19474914,14.4890011 3.86531056,13.6158467 L3.86531056,13.6158467 C3.50519552,12.7693943 3.32513799,11.8655326 3.32513799,10.9015914 C3.32513799,9.93631521 3.5051955,9.03111842 3.86531054,8.18733616 C4.19474911,7.31284664 4.73492166,6.52914382 5.39513257,5.86559985 C5.63520925,5.62394701 5.99532429,5.62394701 6.23540098,5.86559985 C6.47547766,6.10725269 6.47547766,6.46906438 6.23540098,6.70938211 C5.69522843,7.25276721 5.27509423,7.91631117 4.94565566,8.60922729 C4.67490251,9.30347853 4.52552144,10.0564741 4.49484498,10.8708842 C4.49484498,11.654587 4.6455598,12.4089177 4.91497919,13.1018338 L4.91497919,13.1619132 C5.27509423,13.8855366 5.69522843,14.5477455 6.235401,15.0924657 L6.235401,15.0924657 L6.235401,15.0924657 Z" id="Shape"></path>
                    </g>
                </g>
            </g>
        </g>
    </g>
</svg>