<?xml version="1.0" encoding="UTF-8"?>
<svg width="66px" height="66px" viewBox="0 0 66 66" version="1.1" xmlns="http://www.w3.org/2000/svg" xmlns:xlink="http://www.w3.org/1999/xlink">
    <!-- Generator: Sketch 47.1 (45422) - http://www.bohemiancoding.com/sketch -->
    <title>icon-real</title>
    <desc>Created with Sketch.</desc>
    <defs></defs>
    <g id="Page-1" stroke="none" stroke-width="1" fill="none" fill-rule="evenodd">
        <g id="首页" transform="translate(-342.000000, -635.000000)" fill-rule="nonzero">
            <g id="选择合屋" transform="translate(0.000000, 520.000000)">
                <g id="icon-real" transform="translate(342.000000, 115.000000)">
                    <g id="奖章" transform="translate(1.000000, 1.000000)">
                        <polygon id="Shape" fill="#FCCA4C" points="12.4571269 64.9493318 10.6475501 54.330735 0.0289532294 52.5211581 19.2104677 33.3396437 31.6386414 45.7605791"></polygon>
                        <path d="M10.5462138,53.766147 L0.4922049,52.0506682 L0.0289532294,52.5211581 L10.6475501,54.330735 L10.5462138,53.766147 Z M30.9799555,45.1018931 L12.2616927,63.8201559 L12.4498886,64.9493318 L31.6386414,45.7605791 L30.9799555,45.1018931 Z" id="Shape" fill="#FDDA82"></path>
                        <polygon id="Shape" fill="#FCCA4C" points="52.4053452 64.9493318 54.214922 54.330735 64.8262806 52.5211581 45.6447661 33.3396437 33.2165924 45.7605791"></polygon>
                        <path d="M18.8195991,33.8101336 L9.72828508,42.9014477 L10.7126949,45.3986637 C11.4075724,47.1503341 12.7611359,48.5473274 14.4910913,49.3001114 L24.045657,53.4404232 L31.2405345,46.2455457 L18.8195991,33.8101336 Z M45.9198218,33.6219376 L55.0111359,42.7132517 L54.0267261,45.2104677 C53.3318486,46.9621381 51.9782851,48.3591314 50.2483296,49.1119154 L40.6937639,53.2522272 L33.4988864,46.0573497 L45.9198218,33.6219376 Z" id="Shape" fill="#F99403"></path>
                        <path d="M43.7410913,44.5155902 L33.6870824,46.231069 L33.2165924,45.7605791 L43.8351893,43.9510022 L43.7410913,44.5155902 Z M63.704343,52.7165924 L45.4493318,34.4615813 L45.6447661,33.3396437 L64.8262806,52.5211581 L63.704343,52.7165924 Z" id="Shape" fill="#FDDA82"></path>
                        <path d="M58.8619154,24.9721604 L53.201559,10.6547884 C52.5066815,8.90311804 51.153118,7.50612472 49.4231626,6.75334076 L35.3012249,0.636971047 C33.5785078,-0.10857461 31.6241648,-0.144766147 29.8724944,0.550111359 L15.5551225,6.21046771 C13.8034521,6.90534521 12.4064588,8.25890869 11.6536748,9.98886414 L5.53730512,24.1108018 C4.79175947,25.8335189 4.75556793,27.7878619 5.45044543,29.5395323 L11.1108018,43.8569042 C11.8056793,45.6085746 13.1592428,47.0055679 14.8891982,47.7583519 L29.0111359,53.8747216 C30.733853,54.6202673 32.688196,54.6564588 34.4398664,53.9615813 L48.7572383,48.3012249 C50.5089087,47.6063474 51.905902,46.252784 52.658686,44.5228285 L58.7750557,30.3936526 C59.5206013,28.6709354 59.5495546,26.7165924 58.8619154,24.9721604 Z" id="Shape" fill="#5EADEF"></path>
                        <path d="M11.1904232,27.2522272 C11.1904232,38.8292964 20.5754921,48.2143653 32.1525612,48.2143653 C43.7296304,48.2143653 53.1146993,38.8292964 53.1146993,27.2522272 C53.1146993,15.675158 43.7296304,6.29008909 32.1525612,6.29008909 C20.5754921,6.29008909 11.1904232,15.675158 11.1904232,27.2522272 L11.1904232,27.2522272 Z" id="Shape" fill="#E7F5FD"></path>
                        <path d="M32.1453229,6.29732739 C32.2900891,6.29732739 32.4276169,6.29732739 32.5723831,6.3045657 C21.1937639,6.53619154 12.0445434,15.8229399 12.0445434,27.2594655 C12.0445434,38.6959911 21.1937639,47.9827394 32.5723831,48.2071269 C32.4276169,48.2071269 32.2900891,48.2143653 32.1453229,48.2143653 C20.5712695,48.2143653 11.1831849,38.8335189 11.1831849,27.2522272 C11.1831849,15.6709354 20.5640312,6.29732739 32.1453229,6.29732739 Z" id="Shape" fill="#BCDBF5"></path>
                        <path d="M32.1597996,6.29732739 C32.0150334,6.29732739 31.8775056,6.29732739 31.7327394,6.3045657 C43.1041203,6.52895323 52.2605791,15.8229399 52.2605791,27.2522272 C52.2605791,38.6815145 43.1041203,47.9827394 31.7255011,48.2071269 C31.8702673,48.2071269 32.0077951,48.2143653 32.1525612,48.2143653 C43.7266147,48.2143653 53.1146993,38.8335189 53.1146993,27.2522272 C53.1146993,15.6709354 43.733853,6.29732739 32.1597996,6.29732739 Z" id="Shape" fill="#FAFDFF"></path>
                        <path d="M13.636971,27.2522272 C13.6369709,33.8672105 17.1660225,39.9797072 22.8947661,43.2871989 C28.6235097,46.5946906 35.6816128,46.5946906 41.4103564,43.2871989 C47.1391,39.9797072 50.6681515,33.8672105 50.6681514,27.2522272 C50.6681515,20.6372439 47.1391,14.5247472 41.4103564,11.2172555 C35.6816128,7.90976377 28.6235097,7.90976377 22.8947661,11.2172555 C17.1660225,14.5247472 13.6369709,20.6372439 13.636971,27.2522272 Z" id="Shape" fill="#5EADEF"></path>
                        <polygon id="Shape" fill="#3173E7" points="39.4777283 37.6753898 32.3190423 34.0634744 25.2906459 37.9142539 25.2906459 36.951559 26.5066815 29.9955457 20.6798441 24.5016704 20.6798441 23.5389755 28.5840757 23.2132517 32.0077951 15.967706 35.6776169 23.0902004 43.6252784 23.1408686 43.6252784 24.1108018 37.986637 29.8001114 39.4777283 36.7054566"></polygon>
                        <polygon id="Shape" fill="#FFF9F0" points="39.4777283 36.7054566 32.3190423 33.1007795 25.2906459 36.951559 26.5066815 29.0328508 20.6798441 23.5389755 28.5840757 22.2505568 32.0077951 15.0050111 35.6776169 22.1275056 43.6252784 23.1408686 37.986637 28.8301782"></polygon>
                        <polygon id="Shape" fill="#E7F5FD" points="32.0077951 15.0050111 34.4977728 22.7138085 41.1353007 23.7126949 37.2989978 28.7071269 39.4777283 36.7054566 37.986637 28.8301782 43.6252784 23.1408686 35.6776169 22.1275056"></polygon>
                        <path d="M50.2845212,9.12750557 C50.2845212,9.12750557 53.3246102,13.5573497 55.0183742,17.2126949 C56.7193764,20.8680401 57.7327394,25.5946548 57.9860802,26.5501114 C58.2394209,27.5055679 59.5278396,26.7383073 58.9994432,25.3702673 C58.4710468,24.0022272 53.5634744,11.5957684 53.5634744,11.5957684 C53.5634744,11.5957684 52.9916481,9.2577951 51.0517817,8.05623608 C49.9298441,7.34688196 50.2845212,9.12750557 50.2845212,9.12750557 L50.2845212,9.12750557 Z M33.3541203,1.82405345 C33.3541203,1.82405345 37.4582405,2.89532294 40.6792873,4.06069042 C43.9075724,5.22605791 47.4253898,7.41926503 48.1636971,7.83908686 C48.9020045,8.25890869 49.1408686,7.04287305 47.9899777,6.54342984 C46.8390869,6.04398664 36.3652561,1.58518931 36.3652561,1.58518931 C36.3652561,1.58518931 35.2143653,0.448775056 33.3830735,0.875835189 C32.3262806,1.11469933 33.3541203,1.82405345 33.3541203,1.82405345 Z M56.6469933,30.8496659 C56.6469933,30.8496659 55.4888641,34.642539 54.1497773,37.8853007 C52.8106904,41.1353007 50.3351893,44.4142539 49.8646993,45.1163697 C49.3942094,45.8184855 50.704343,46.4265033 51.2761693,45.2900891 C51.8479955,44.1536748 56.9365256,33.8028953 56.9365256,33.8028953 C56.9365256,33.8028953 57.7834076,32.0150334 57.6965479,29.981069 C57.6386414,28.7071269 56.6469933,30.8496659 56.6469933,30.8496659 Z" id="Shape" fill="#9ECEF5"></path>
                        <polygon id="Shape" fill="#FFFFFF" points="54.214922 54.330735 53.5924276 54.4827394 51.7683742 64.3123608 52.4053452 64.9493318"></polygon>
                    </g>
                </g>
            </g>
        </g>
    </g>
</svg>