<?xml version="1.0" encoding="UTF-8"?>
<svg width="66px" height="66px" viewBox="0 0 66 66" version="1.1" xmlns="http://www.w3.org/2000/svg" xmlns:xlink="http://www.w3.org/1999/xlink">
    <!-- Generator: Sketch 47.1 (45422) - http://www.bohemiancoding.com/sketch -->
    <title>icon-service</title>
    <desc>Created with Sketch.</desc>
    <defs></defs>
    <g id="Page-1" stroke="none" stroke-width="1" fill="none" fill-rule="evenodd">
        <g id="首页" transform="translate(-572.000000, -635.000000)" fill-rule="nonzero">
            <g id="选择合屋" transform="translate(0.000000, 520.000000)">
                <g id="icon-service" transform="translate(572.000000, 115.000000)">
                    <g id="男士" transform="translate(18.000000, 1.000000)">
                        <path d="M21.6349727,30.304918 C20.9956284,27.2289617 20.3989071,24.3519126 19.8377049,21.6666667 C19.7453552,21.2120219 19.631694,20.6721311 19.4967213,20.0469945 L29.1224044,35.5830601 C29.5344262,36.0590164 29.9393443,35.3131148 30.1169399,35.8672131 C30.273224,36.3715847 30.2306011,38.1688525 30.2092896,38.6945355 C30.152459,39.852459 29.6409836,40.9961749 28.7103825,41.8628415 L28.6961749,41.8770492 L24.7464481,45.4644809 C24.547541,44.484153 24.3557377,43.5393443 24.1710383,42.615847 L21.6349727,30.304918 L21.6349727,30.304918 Z" id="Shape" fill="#F99403"></path>
                        <path d="M8.18032787,16.8431694 L19.2836066,16.8005464 C19.8448087,19.6065574 20.4060109,22.3912568 20.9601093,25.1759563 C24.0353064,32.9917966 26.3144678,41.3692238 27.8669489,49.2947884 C28.0161293,50.1046245 28.1439981,50.8292147 28.2434517,51.383313 C28.2647631,51.4969742 28.2931784,51.667466 28.3571129,52.0510726 C28.4068396,52.3352256 28.5418123,51.9232037 28.5631238,52.0794879 C28.6057467,52.3707447 28.5631238,53.415007 28.5631238,53.7346791 C28.5631238,54.5232037 28.2150364,55.283313 27.7532877,55.9581764 C27.3625773,56.5335862 26.9008287,57.0379578 26.5456375,57.4144606 C26.0270582,57.9756627 25.4729599,58.5084496 24.9117577,59.0341327 C24.4002823,59.510089 23.8177686,60.0144606 23.2139435,60.5330398 C22.624326,61.0374114 22.0347085,61.5204715 21.445091,61.9822201 C20.8199544,62.4723841 20.2090254,62.9412365 19.6052003,63.367466 L19.5199544,63.4314004 C18.7385336,63.9926026 16.3319762,64.994242 15.1740528,64.994242 C14.0303369,64.994242 10.6095719,63.9997065 9.82815111,63.4527119 L9.75000904,63.3958813 C9.1177686,62.9554442 8.49263199,62.4936955 7.88880685,62.0248431 C7.30629319,61.5701983 6.70957188,61.0871382 6.10574674,60.5756627 C5.57295986,60.1281218 5.01175767,59.6379578 4.41503636,59.0838595 C3.8325227,58.5439688 3.28552816,58.004078 2.7882604,57.4712912 C2.4188615,57.0663731 1.95711286,56.5477939 1.5735063,55.9652802 C1.12596532,55.283313 0.792085539,54.5160999 0.792085539,53.7275753 C0.792085539,53.4007994 0.870227616,52.0794879 0.792085539,51.9729305 C0.891539091,51.8450616 0.948369692,52.2997065 0.998096468,52.0084496 C1.06203089,51.6319469 1.09044619,51.4543513 1.11175767,51.3264824 C1.21831505,50.7084496 1.3461839,49.9909633 1.48115658,49.230854 C1.63033691,48.3997065 1.75110193,47.7532584 1.86476313,47.1494332 C2.26968117,44.9898704 2.6461839,43.0434223 3.00137516,41.2177392 C3.38498171,39.2428759 3.7756921,37.2751163 4.16640248,35.3002529 C4.57132051,33.2472474 5.160938,30.3204715 5.92815111,26.519925 C6.53197625,23.5505261 7.10028226,20.7658267 7.62596532,18.1871382 L8.18032787,16.8431694 Z" id="Shape" fill="#3173E7"></path>
                        <path d="M21.6349727,28.6142077 C20.9956284,25.5382514 20.3989071,22.6612022 19.8377049,19.9759563 C19.7453552,19.5213115 19.631694,18.9814208 19.4967213,18.3562842 L29.1224044,33.8923497 C29.910929,34.7874317 30.2590164,35.9027322 30.2021858,37.0038251 C30.1453552,38.1617486 29.6338798,39.3054645 28.7032787,40.1721311 L28.689071,40.1863388 L24.7393443,43.7737705 C24.5404372,42.7934426 24.3486339,41.8486339 24.1639344,40.9251366 L21.6349727,28.6142077 Z" id="Shape" fill="#FCCA4C"></path>
                        <path d="M29.1295082,33.920765 L19.5038251,18.3846995 L28.0497268,34.1480874 C28.8382514,35.0431694 29.1863388,36.1584699 29.1295082,37.2595628 C29.0726776,38.4174863 28.5612022,39.5612022 27.6306011,40.4278689 L27.6163934,40.4420765 L24.7464481,43.8021858 L28.6961749,40.2147541 L28.7103825,40.2005464 C29.6409836,39.3338798 30.1453552,38.1901639 30.2092896,37.0322404 C30.2661202,35.9311475 29.910929,34.815847 29.1295082,33.920765 Z" id="Shape" fill="#FEE5A6"></path>
                        <path d="M8.15191257,15.1382514 L8.13060109,15.1027322 L2.90928962,5.81092896 C2.70327869,5.44153005 2.57540984,4.96557377 2.51147541,4.49672131 C2.44754098,4.0136612 2.46174863,3.48797814 2.53278689,3.09016393 C2.72459016,2.06010929 3.2431694,1.30710383 3.96775956,0.795628415 C4.72786885,0.255737705 5.6726776,0.0142076503 6.65300546,0.0142076503 L20.9032787,0.0142076503 C21.7628415,0.0142076503 22.4874317,0.191803279 23.0770492,0.504371585 C23.6666667,0.816939891 24.1071038,1.26448087 24.4125683,1.79726776 C24.710929,2.32295082 24.8530055,2.91256831 24.8530055,3.52349727 C24.8530055,4.24808743 24.6540984,5.01530055 24.2562842,5.76120219 L19.2836066,15.1169399 L19.2765027,15.1382514 L8.15191257,15.1382514 Z" id="Shape" fill="#5EADEF"></path>
                        <path d="M4.06721311,5.81092896 C3.86120219,5.44153005 3.73333333,4.96557377 3.66939891,4.49672131 C3.60546448,4.0136612 3.61967213,3.48797814 3.69071038,3.09016393 C3.88251366,2.06010929 4.4010929,1.30710383 5.12568306,0.795628415 C5.88579235,0.255737705 6.83060109,0.0142076503 7.81092896,0.0142076503 L6.66010929,0.0142076503 C5.68688525,0.0142076503 4.73497268,0.255737705 3.97486339,0.795628415 C3.25737705,1.30710383 2.73169399,2.06010929 2.53989071,3.09016393 C2.46885246,3.48797814 2.45464481,4.0136612 2.51857923,4.49672131 C2.57540984,4.96557377 2.70327869,5.44153005 2.91639344,5.81092896 L8.13770492,15.1027322 L8.15901639,15.1382514 L9.30983607,15.1382514 L9.28852459,15.1027322 L4.06721311,5.81092896 Z" id="Shape" fill="#4C96EC"></path>
                        <path d="M24.4196721,1.79016393 C24.1142077,1.25737705 23.6737705,0.809836066 23.084153,0.49726776 C22.4945355,0.184699454 21.7699454,0.00710382514 20.9103825,0.00710382514 L19.0989071,0.00710382514 C19.9584699,0.00710382514 20.6830601,0.184699454 21.2726776,0.49726776 C21.8622951,0.809836066 22.3027322,1.25737705 22.6081967,1.79016393 C22.9065574,2.31584699 23.0486339,2.90546448 23.0486339,3.51639344 C23.0486339,4.24098361 22.8497268,5.00819672 22.4519126,5.75409836 L17.2448087,15.1311475 L17.2377049,15.152459 L19.2836066,15.1311475 L19.2907104,15.1098361 L24.263388,5.75409836 C24.6540984,5.01530055 24.8601093,4.24098361 24.8601093,3.51639344 C24.8601093,2.90546448 24.710929,2.31584699 24.4196721,1.79016393 Z" id="Shape" fill="#8FC6F4"></path>
                        <path d="M8.15191257,15.1382514 L19.2836066,15.1382514 C19.8448087,17.9442623 20.4060109,20.7289617 20.9601093,23.5136612 C24.0353064,31.6457657 26.3144678,40.0231929 27.8669489,47.9487575 C28.0161293,48.7585936 28.1439981,49.4831837 28.2434517,50.0372821 C28.2647631,50.1509433 28.2931784,50.3214351 28.3571129,50.7050417 C28.4068396,50.9891947 28.4423588,51.2307247 28.4636702,51.3870089 C28.513397,51.7422001 28.5631238,52.0689761 28.5631238,52.3886482 C28.5631238,53.1771728 28.2150364,53.9372821 27.7532877,54.6121455 C27.3625773,55.1875553 26.9008287,55.6919269 26.5456375,56.0684296 C26.0270582,56.6296318 25.4729599,57.1624187 24.9117577,57.6881018 C24.4002823,58.1640581 23.8177686,58.6684296 23.2139435,59.1870089 C22.624326,59.6913805 22.0347085,60.1744406 21.445091,60.6361892 C20.8199544,61.1263531 20.2090254,61.5952056 19.6052003,62.0214351 L19.5199544,62.0853695 C18.7385336,62.6465717 16.3319762,63.6482111 15.1740528,63.6482111 C14.0303369,63.6482111 10.6095719,62.6536755 9.82815111,62.106681 L9.75000904,62.0498504 C9.1177686,61.6094133 8.49263199,61.1476646 7.88880685,60.6788122 C7.30629319,60.2241673 6.70957188,59.7411072 6.10574674,59.2296318 C5.57295986,58.7820908 5.01175767,58.2919269 4.41503636,57.7378286 C3.8325227,57.1979378 3.28552816,56.6580471 2.7882604,56.1252602 C2.4188615,55.7203422 1.95711286,55.201763 1.5735063,54.6192493 C1.12596532,53.9372821 0.792085539,53.170069 0.792085539,52.3815444 C0.792085539,52.0547684 0.841812315,51.7208887 0.884435266,51.4154242 C0.884435266,51.4154242 0.955473517,50.9607794 0.998096468,50.6695225 C1.06203089,50.2930198 1.09044619,50.1154242 1.11175767,49.9875553 C1.21831505,49.3695225 1.3461839,48.6520362 1.48115658,47.8919269 C1.63033691,47.0607794 1.75110193,46.4143313 1.86476313,45.8105061 C2.26968117,43.6509433 2.6461839,41.7044952 3.00137516,39.8788122 C3.38498171,37.9039488 3.7756921,35.9361892 4.16640248,33.9613258 C4.57132051,31.9083204 5.160938,28.9815444 5.92815111,25.1809979 C6.53197625,22.211599 7.10028226,19.4268996 7.62596532,16.8411072 L8.15191257,15.1382514 Z" id="Shape" fill="#E7F5FD"></path>
                        <path d="M21.5355191,26.3693989 L4.50765027,33.4021858 L3.76885246,37.1530055 L22.110929,29.2677596 L21.5355191,26.3693989 Z M20.1289617,19.3650273 L6.16284153,25.1404372 L5.41693989,28.8557377 L20.7114754,22.2846995 L20.1289617,19.3650273 Z M23.0912568,34.1765027 L2.71748634,42.615847 L2.01420765,46.352459 L23.6666667,37.0535519 L23.0912568,34.1765027 Z" id="Shape" fill="#5EADEF"></path>
                        <polygon id="Shape" fill="#F0F8FC" points="7.83934426 16.857377 19.6103825 16.857377 19.2765027 15.1382514 8.15191257 15.1382514"></polygon>
                        <path d="M26.0393443,49.7907104 L26.0322404,49.726776 C26.010929,49.5704918 25.968306,49.3360656 25.9256831,49.0448087 C25.8617486,48.6612022 25.8333333,48.4907104 25.8120219,48.3770492 C25.7125683,47.815847 25.5846995,47.0983607 25.4355191,46.2885246 C25.279235,45.4431694 25.1584699,44.8038251 25.0448087,44.2142077 C24.6327869,42.0262295 24.2562842,40.0726776 23.9010929,38.2540984 C23.5174863,36.2721311 23.1196721,34.2901639 22.7289617,32.3081967 C22.3382514,30.3546448 21.7557377,27.420765 20.9672131,23.5136612 L19.2836066,15.1595628 L19.2907104,15.1382514 L16.2218579,15.1382514 L16.2147541,15.1595628 C16.7830601,17.9442623 17.3442623,20.7289617 17.8983607,23.5136612 C18.5649338,31.2054565 21.0165931,37.7714402 22.4828253,45.2566957 C22.6320056,46.0665318 22.7598745,46.7911219 22.859328,47.3452203 C22.8806395,47.4588815 22.9090548,47.6293733 22.9729892,48.0129798 C23.022716,48.2971328 23.0582351,48.5386629 23.0795466,48.6949471 L23.0866504,48.7588815 C23.1292734,49.0501383 23.1790001,49.3769143 23.1790001,49.6965864 C23.1790001,50.485111 22.8309127,51.2452203 22.3691641,51.9200837 C21.9784537,52.4954935 21.5167051,52.9998651 21.1615138,53.3763678 C20.6429346,53.93757 20.0888362,54.4703569 19.527634,54.9960399 C19.0161586,55.4719962 18.4336449,55.9763678 17.8298198,56.4949471 C17.2402023,56.9993186 16.6505848,57.4823787 16.0609674,57.9441274 C15.4358307,58.4342913 14.8249018,58.9031438 14.2210766,59.3293733 L14.1358307,59.3933077 C13.6811859,59.7129798 13.0205302,60.1889361 12.3243553,60.5299197 C12.8429346,60.7785536 13.3757215,60.9561492 13.8587816,60.9561492 C15.0167051,60.9561492 16.4232624,59.9545099 17.2046832,59.3933077 L17.2899291,59.3293733 C17.8937542,58.9031438 18.511787,58.4342913 19.1298198,57.9441274 C19.7194373,57.4823787 20.3090548,56.9922148 20.8986723,56.4949471 C21.5024974,55.9763678 22.0850111,55.4719962 22.5964865,54.9960399 C23.1576887,54.4774607 23.7046832,53.93757 24.2303663,53.3763678 C24.5855575,52.9927613 25.0473062,52.4883897 25.4380165,51.9200837 C25.8997652,51.2452203 26.2478526,50.4780072 26.2478526,49.6965864 C26.2478526,49.3769143 26.2052296,49.0501383 26.1626067,48.7588815 L26.0393443,49.7907104 Z" id="Shape" fill="#F0F8FC"></path>
                        <path d="M23.5174863,36.2934426 L23.0912568,34.1765027 L20.2639344,35.3486339 C20.4557377,36.3147541 20.647541,37.2808743 20.8322404,38.2469945 C20.8322404,38.2540984 20.8322404,38.2612022 20.8393443,38.268306 L23.6737705,37.0535519 C23.6169399,36.7978142 23.5672131,36.5420765 23.5174863,36.2934426 L23.5174863,36.2934426 Z M22.110929,29.2677596 L21.5284153,26.3693989 L18.7010929,27.5415301 C18.9213115,28.642623 19.1202186,29.6229508 19.2907104,30.4825137 L22.110929,29.2677596 L22.110929,29.2677596 Z M17.8983607,23.4994536 L20.7185792,22.2918033 L20.1289617,19.3721311 L17.3016393,20.5300546 C17.5005464,21.5174863 17.6994536,22.504918 17.8983607,23.4994536 L17.8983607,23.4994536 Z" id="Shape" fill="#DFEFFC"></path>
                    </g>
                </g>
            </g>
        </g>
    </g>
</svg>