<?xml version="1.0" encoding="UTF-8"?>
<svg width="30px" height="30px" viewBox="0 0 30 30" version="1.1" xmlns="http://www.w3.org/2000/svg" xmlns:xlink="http://www.w3.org/1999/xlink">
    <!-- Generator: Sketch 47.1 (45422) - http://www.bohemiancoding.com/sketch -->
    <title>icon-pic</title>
    <desc>Created with Sketch.</desc>
    <defs></defs>
    <g id="Page-1" stroke="none" stroke-width="1" fill="none" fill-rule="evenodd">
        <g id="新房详情" transform="translate(-508.000000, -420.000000)" fill-rule="nonzero" fill="#FFFFFF">
            <g id="banner" transform="translate(0.000000, 72.000000)">
                <g id="Group-5" transform="translate(500.000000, 348.000000)">
                    <g id="icon-pic" transform="translate(8.000000, 0.000000)">
                        <g id="相册" transform="translate(2.000000, 5.000000)">
                            <path d="M13,9.73913043 L11.3533333,7.91304348 L7.02,13.0434783 L5.2,11.3913043 L2.6,14.6956522 L20.7133333,14.6956522 L20.7133333,11.3913043 L16.4666667,5.21739131 L13,9.73913043 Z M6.41333334,6.95652173 C7.62666668,6.95652173 8.58,5.99999998 8.58,4.78260869 C8.58,3.5652174 7.62666666,2.60869565 6.41333334,2.60869565 C5.20000003,2.60869565 4.24666666,3.56521738 4.24666666,4.69565218 C4.24666666,5.91304349 5.28666666,6.95652175 6.41333334,6.95652173 L6.41333334,6.95652173 Z M23.4,15.5652174 L23.4,1.73913042 C23.4,0.695652158 22.7933333,-2.54755434e-08 21.6666667,0 L1.73333334,0 C0.52,0 0,0.782608696 0,1.73913042 L0,15.5652174 C0,16.5217391 0.52,17.3043478 1.73333334,17.3043478 L21.6666667,17.3043478 C22.7933333,17.3913043 23.4,16.9565218 23.4,15.5652174 Z M1.73333334,15.6521739 L1.73333334,1.73913042 L21.6666667,1.73913042 L21.6666667,15.6521739 L1.73333334,15.6521739 Z M26,4.34782607 C26,2.95652173 24.7866667,2.60869563 24.2666667,2.60869565 L24.2666667,15.9130435 C24.2666667,15.9130435 24.6133333,18.2608696 22.88,18.2608696 L2.6,18.2608696 C2.6,18.7826087 2.94666666,20 4.33333334,20 L24.2666667,20 C25.6533333,20 26,19.3043478 26,18.173913 L26,4.34782607 L26,4.34782607 Z" id="Shape"></path>
                        </g>
                    </g>
                </g>
            </g>
        </g>
    </g>
</svg>