<?xml version="1.0" encoding="UTF-8"?>
<svg width="22px" height="12px" viewBox="0 0 22 12" version="1.1" xmlns="http://www.w3.org/2000/svg" xmlns:xlink="http://www.w3.org/1999/xlink">
    <!-- Generator: Sketch 47.1 (45422) - http://www.bohemiancoding.com/sketch -->
    <title>location</title>
    <desc>Created with Sketch.</desc>
    <defs></defs>
    <g id="Page-1" stroke="none" stroke-width="1" fill="none" fill-rule="evenodd">
        <g id="新房列表" transform="translate(-160.000000, -118.000000)" fill-rule="nonzero" fill="#5D9CF9">
            <g id="导航" transform="translate(29.000000, 100.000000)">
                <g id="位置筛选" transform="translate(61.000000, 2.000000)">
                    <g id="location" transform="translate(81.000000, 22.000000) rotate(90.000000) translate(-81.000000, -22.000000) translate(75.000000, 11.000000)">
                        <path d="M9.67049189,10.7951242 C9.88914667,10.9954416 9.88658655,11.2814579 9.66134738,11.4806919 L1.19937149,18.9656851 C0.956724665,19.180317 0.932136674,19.5531602 1.1444526,19.7984538 C1.35676861,20.0437474 1.72558881,20.0686036 1.96823561,19.8539717 L10.4302116,12.3689785 C11.1808059,11.7050445 11.1907421,10.594967 10.454552,9.92051728 L1.97583359,2.15286448 C1.73692354,1.93399058 1.36773087,1.95234567 1.15121862,2.19386169 C0.934706423,2.43537774 0.95286346,2.80859751 1.19177348,3.02747147 L9.67049189,10.7951242 Z" id="Shape"></path>
                    </g>
                </g>
            </g>
        </g>
    </g>
</svg>