<?xml version="1.0" encoding="UTF-8"?>
<svg width="48px" height="48px" viewBox="0 0 48 48" version="1.1" xmlns="http://www.w3.org/2000/svg" xmlns:xlink="http://www.w3.org/1999/xlink">
    <!-- Generator: Sketch 47.1 (45422) - http://www.bohemiancoding.com/sketch -->
    <title>menu</title>
    <desc>Created with Sketch.</desc>
    <defs></defs>
    <g id="Page-1" stroke="none" stroke-width="1" fill="none" fill-rule="evenodd">
        <g id="首页" transform="translate(-674.000000, -100.000000)" fill-rule="nonzero" fill="#FFFFFF">
            <g id="banner" transform="translate(0.000000, 37.000000)">
                <g id="menu" transform="translate(674.000000, 63.000000)">
                    <path d="M42.3328558,9.40760226 L5.66714416,9.40760226 C3.65021487,9.40760226 2,7.74089175 2,5.70380113 C2,3.66671051 3.65021487,2 5.66714416,2 L42.3271259,2 C44.3440552,2 45.9942701,3.66671051 45.9942701,5.70380113 C46,7.74089175 44.3497851,9.40760226 42.3328558,9.40760226 L42.3328558,9.40760226 Z M42.3328558,27.5388662 L5.88488084,27.5388662 C3.86795156,27.5388662 2.21773668,25.8721557 2.21773668,23.8350651 C2.21773668,21.7979745 3.86795156,20.131264 5.88488084,20.131264 L42.3328558,20.131264 C44.3497851,20.131264 46,21.7979745 46,23.8350651 C46,25.8721557 44.3497851,27.5388662 42.3328558,27.5388662 Z M42.3328558,46 L5.66714416,46 C3.65021487,46 2,44.3332895 2,42.2961989 C2,40.2591082 3.65021487,38.5923977 5.66714416,38.5923977 L42.3271259,38.5923977 C44.3440552,38.5923977 45.9942701,40.2591082 45.9942701,42.2961989 C46,44.3332895 44.3497851,46 42.3328558,46 L42.3328558,46 Z" id="Shape"></path>
                </g>
            </g>
        </g>
    </g>
</svg>