<?xml version="1.0" encoding="UTF-8"?>
<svg width="50px" height="50px" viewBox="0 0 50 50" version="1.1" xmlns="http://www.w3.org/2000/svg" xmlns:xlink="http://www.w3.org/1999/xlink">
    <!-- Generator: Sketch 47.1 (45422) - http://www.bohemiancoding.com/sketch -->
    <title>烟管道-01</title>
    <desc>Created with Sketch.</desc>
    <defs></defs>
    <g id="Page-1" stroke="none" stroke-width="1" fill="none" fill-rule="evenodd">
        <g id="商铺详情-出售" transform="translate(-350.000000, -1307.000000)" fill-rule="nonzero" fill="#B7B7B7">
            <g id="Group" transform="translate(0.000000, 1089.000000)">
                <g id="烟管道-01" transform="translate(350.000000, 218.000000)">
                    <path d="M16.4102564,7.7294686 L0,7.7294686 L0,0 L16.4102564,0 L16.4102564,7.7294686 Z M1.53846154,6.28019324 L14.8717949,6.28019324 L14.8717949,1.44927536 L1.53846154,1.44927536 L1.53846154,6.28019324 Z M50,19.0821256 L43.3333333,19.0821256 L43.3333333,5.07246377 L50,5.07246377 L50,19.0821256 Z M44.8717949,17.6328502 L48.4615385,17.6328502 L48.4615385,6.52173913 L44.8717949,6.52173913 L44.8717949,17.6328502 Z M10.2564103,40.0966184 L10.2564103,9.09661836 L11.7948718,9.09661836 L11.7948718,40.0966184 C11.7286961,42.2960971 13.5628818,44.1319441 15.8974359,44.2028986 C18.23199,44.1319441 20.0661757,42.2960971 20,40.0966184 L21.5384615,40.0966184 C21.6043601,43.0963683 19.0815698,45.5809346 15.8974359,45.6521739 C12.713302,45.5809346 10.1905117,43.0963683 10.2564103,40.0966184 Z M16.1538462,50 L15.1282051,50 C9.18870235,49.981442 4.37867436,45.4502562 4.35897436,39.8550725 L4.35897436,9.74396135 L5.8974359,9.74396135 L5.8974359,39.8550725 C5.91711514,44.6498487 10.0383657,48.5321862 15.1282051,48.5507246 L16.1538462,48.5507246 C21.2436855,48.5321862 25.3649361,44.6498487 25.3846154,39.8550725 L25.3846154,21.821256 L26.9230769,21.821256 L26.9230769,39.8550725 C26.9033769,45.4502562 22.0933489,49.981442 16.1538462,50 Z M6.15384615,6.76328502 L9.74358974,6.76328502 L9.74358974,9.66183575 L6.15384615,9.66183575 L6.15384615,6.76328502 Z M20,41.2751783 C20,40.5820014 19.9992503,39.7808507 20,39.0538352 L20,18.0006951 C20.0056522,13.2777995 24.3249262,9.42561443 29.3384615,9.42028986 L38.5897436,9.42028986 C39.6848092,9.41843611 40.7083658,9.42028986 41.7948718,9.42028986 L41.5282051,10.8695652 C40.6384468,10.8695652 39.7758151,10.866815 38.8666667,10.8695652 L29.3384615,10.8695652 C25.1734242,10.8722298 21.5412901,14.0771092 21.5384615,18.0006951 L21.5384615,39.0538352 C21.5369148,39.6585217 21.5384615,40.2382149 21.5384615,40.8461058 L20,41.2751783 Z M26.9230769,40.3381643 L25.3846154,40.3381643 L25.3846154,23.2898551 C25.3929504,16.3253031 28.1771027,14.7409793 34.4666667,14.7342995 L41.2820513,14.7342995 L41.2820513,16.1835749 L34.4666667,16.1835749 C29.2154115,16.1869344 26.9270487,17.7804279 26.9230769,23.2898551 L26.9230769,40.3381643 Z M40.2564103,9.42028986 L41.7948718,9.42028986 L41.7948718,16.1835749 L40.2564103,16.1835749 L40.2564103,9.42028986 Z" id="Shape"></path>
                </g>
            </g>
        </g>
    </g>
</svg>