<?xml version="1.0" encoding="UTF-8"?>
<svg width="50px" height="50px" viewBox="0 0 50 50" version="1.1" xmlns="http://www.w3.org/2000/svg" xmlns:xlink="http://www.w3.org/1999/xlink">
    <!-- Generator: Sketch 47.1 (45422) - http://www.bohemiancoding.com/sketch -->
    <title>外摆</title>
    <desc>Created with Sketch.</desc>
    <defs></defs>
    <g id="Page-1" stroke="none" stroke-width="1" fill="none" fill-rule="evenodd">
        <g id="商铺详情-出售" transform="translate(-500.000000, -1307.000000)" fill-rule="nonzero" fill="#B7B7B7">
            <g id="Group" transform="translate(0.000000, 1089.000000)">
                <g id="外摆" transform="translate(500.000000, 218.000000)">
                    <path d="M34.0505607,21.4109485 C33.789522,8.65434266 25.8687,2.9061439 25.788588,2.8497437 L26.5422849,1.84479415 C26.8903366,2.08919514 35.0583955,7.9817121 35.3326133,21.3866692 L34.0505607,21.4109485 Z M14.6294535,21.4473422 C13.5890342,8.52515496 24.6323591,1.88244454 24.7437585,1.81634271 L25.4091972,2.87829568 C25.3040242,2.9401751 14.9299257,9.20628075 15.9077184,21.3503258 L14.6294535,21.4473422 Z M16.5585771,41.5975557 L35.9896465,41.5975557 L35.9896465,42.7620043 L16.5585771,42.7620042 L16.5585771,41.5975557 Z M39.2501145,49.2348102 C35.9385387,47.0611896 35.3326133,45.0780329 35.3326133,41.9546565 C35.3326133,39.5117525 36.3623959,37.1877816 38.3111325,35.2336795 L39.2332515,36.0972766 C37.5198701,37.8148194 36.6146659,39.8404523 36.6146659,41.9546063 C36.6146659,44.811112 37.0810178,46.3115491 39.9687883,48.2061344 L39.2501145,49.2348102 Z M13.2760575,49.9977716 L12.4159424,49.0759143 C14.5956757,47.1679579 15.8451958,44.4375736 15.8451958,41.583531 C15.8451958,39.4366025 15.1615969,37.3879471 13.8689077,35.6582395 L14.9068364,34.9304654 C16.3598017,36.8724027 17.1272484,39.1733511 17.1272484,41.5834807 C17.1271964,44.7881397 15.7237304,47.8544623 13.2760575,49.9977716 Z M43.8869121,36.2805019 L8.58104376,36.2805019 C7.21384612,36.2805019 6.10208359,35.202212 6.10208359,33.8776612 C6.10208359,32.5446151 7.21384617,31.4675316 8.58104376,31.4675316 L43.8869639,31.4675316 C45.2541616,31.4675316 46.3665467,32.5446151 46.3665467,33.8691659 C46.3665468,35.202212 45.2541097,36.2805019 43.8869121,36.2805019 Z M8.58104376,32.7095933 C7.92126061,32.7095933 7.38413617,33.2299633 7.38413617,33.8691659 C7.38413617,34.5180701 7.92126066,35.0384402 8.58104376,35.0384402 L43.8869639,35.0384402 C44.5474215,35.0384402 45.0844942,34.5180701 45.0844942,33.8776611 C45.0844942,33.2299633 44.5473697,32.7095933 43.8869639,32.7095933 L8.58104376,32.7095933 Z M25.0120612,24.9462174 L26.2140018,24.9462174 L26.2140018,48.7006668 L25.0120612,48.7006668 L25.0120612,24.9462174 Z M25.0120612,0.0273696429 L26.2140018,0.0273696429 L26.2140018,2.39497282 L25.0120612,2.39497282 L25.0120612,0.0273696429 Z M32.3196418,25.5822531 L17.7043769,25.5822531 C16.4004284,25.5822531 15.2836329,24.787774 14.8360119,23.6706272 C14.2976421,24.121829 13.5971284,24.394782 12.8327949,24.394782 L3.08911206,24.394782 C1.39264551,24.394782 0.0123206845,23.0508279 0.0123206845,21.3987837 L0.0123206845,17.8375767 C0.0123206845,17.5901094 0.0486409179,17.3426924 0.127507746,17.0588816 C1.16227139,3.5308192 13.9709156,1.78115541 25.0123207,1.78115541 C35.9372934,1.78115541 47.7493621,2.8322003 49.7005893,15.3595357 C49.9071476,15.7756004 50.0123207,16.2098119 50.0123207,16.6501056 L50.0123207,21.398834 C50.0123207,23.0508782 48.6319959,24.3948323 46.9349067,24.3948323 L37.1918465,24.3948322 C36.427513,24.3948322 35.7269993,24.1219295 35.1880069,23.6706774 C34.7410604,24.787774 33.6236422,25.5822531 32.3196418,25.5822531 Z M15.9096382,21.398834 L15.9096382,22.5863051 C15.9096382,23.5530513 16.7147023,24.3402417 17.7043769,24.3402417 L32.3196418,24.3402417 C33.3093684,24.3402417 34.1143805,23.5530513 34.1143805,22.5863051 L34.1143805,21.398834 L35.3964332,21.398834 C35.3964332,22.3655802 36.2021199,23.1527705 37.1917946,23.1527705 L46.9349067,23.1527705 C47.9246333,23.1527705 48.7302681,22.3655802 48.7302681,21.398834 L48.7302681,16.6501056 C48.7302681,16.3772028 48.657005,16.1030435 48.5130213,15.8362231 L48.4472816,15.6385207 C46.8623181,5.13375188 38.3048543,3.02321711 25.0123207,3.02321711 C9.22328939,3.02321711 2.15760162,7.28309325 1.38574464,17.2662857 C1.31689186,17.5573852 1.29437327,17.7017537 1.29437327,17.8375767 L1.29437327,21.3987837 C1.29437327,22.3655299 2.09943736,23.1527203 3.089112,23.1527203 L12.8328467,23.1527203 C13.8225733,23.1527203 14.6275855,22.3655299 14.6275855,21.3987837 L15.9096382,21.3987837 L15.9096382,21.398834 Z" id="Shape"></path>
                </g>
            </g>
        </g>
    </g>
</svg>