<?xml version="1.0" encoding="UTF-8"?>
<svg width="18px" height="10px" viewBox="0 0 18 10" version="1.1" xmlns="http://www.w3.org/2000/svg" xmlns:xlink="http://www.w3.org/1999/xlink">
    <!-- Generator: Sketch 47.1 (45422) - http://www.bohemiancoding.com/sketch -->
    <title>位置筛选</title>
    <desc>Created with Sketch.</desc>
    <defs></defs>
    <g id="Page-1" stroke="none" stroke-width="1" fill="none" fill-rule="evenodd">
        <g id="首页" transform="translate(-102.000000, -119.000000)" fill-rule="nonzero" fill="#FFFFFF">
            <g id="banner" transform="translate(0.000000, 37.000000)">
                <g id="位置筛选" transform="translate(30.000000, 65.000000)">
                    <g id="右" transform="translate(81.000000, 22.000000) rotate(90.000000) translate(-81.000000, -22.000000) translate(75.000000, 12.000000)">
                        <path d="M9.67049189,9.79512421 C9.88914667,9.99544158 9.88658655,10.2814579 9.66134738,10.4806919 L1.19937149,17.9656851 C0.956724665,18.180317 0.932136674,18.5531602 1.1444526,18.7984538 C1.35676861,19.0437474 1.72558881,19.0686036 1.96823561,18.8539717 L10.4302116,11.3689785 C11.1808059,10.7050445 11.1907421,9.59496696 10.454552,8.92051728 L1.97583359,1.15286448 C1.73692354,0.933990575 1.36773087,0.952345666 1.15121862,1.19386169 C0.934706423,1.43537774 0.95286346,1.80859751 1.19177348,2.02747147 L9.67049189,9.79512421 Z" id="Shape"></path>
                    </g>
                </g>
            </g>
        </g>
    </g>
</svg>