<?xml version="1.0" encoding="UTF-8"?>
<svg width="50px" height="50px" viewBox="0 0 50 50" version="1.1" xmlns="http://www.w3.org/2000/svg" xmlns:xlink="http://www.w3.org/1999/xlink">
    <!-- Generator: Sketch 47.1 (45422) - http://www.bohemiancoding.com/sketch -->
    <title>烟管道</title>
    <desc>Created with Sketch.</desc>
    <defs></defs>
    <g id="Page-1" stroke="none" stroke-width="1" fill="none" fill-rule="evenodd">
        <g id="商铺详情-出售" transform="translate(-650.000000, -1184.000000)" fill-rule="nonzero" fill="#B7B7B7">
            <g id="Group" transform="translate(0.000000, 1089.000000)">
                <g id="烟管道-www-" transform="translate(650.000000, 95.000000)">
                    <path d="M40.6527244,49.9384147 C39.1324576,49.9384147 37.7462881,49.4064193 36.9413727,48.5225317 C33.5787404,44.8245386 32.2815545,41.5227037 32.9616607,38.4369812 C33.5517883,35.7592863 35.5104213,33.7126119 37.24531,31.9069353 L37.3970713,31.7461555 C37.8443939,31.2761441 38.3003413,30.7938046 38.7297511,30.3053872 C42.1102133,26.409745 40.4734304,23.7014308 36.4401458,17.9503986 C30.9759097,10.1404216 38.2644327,3.23348351 42.8882595,0.673334425 C43.8007347,0.166224333 44.9360419,-0.0626747495 46.0990476,0.0241371771 C47.2618875,0.110547728 48.2990889,0.506476627 49.0411436,1.13721057 C50.5436634,2.43571975 50.2485167,4.34013488 48.3791989,5.38531837 C48.1643282,5.50269222 46.2238568,6.6405936 44.7749925,8.44007754 C42.9055918,10.7650775 42.7538305,13.0778642 44.3190451,15.310089 C46.3491635,18.2039537 48.254141,20.9372679 48.9872393,23.8744239 C49.8099846,27.2072794 48.915671,30.3239078 46.2326473,33.4157083 C45.7227128,34.0032083 45.1863236,34.5658803 44.6673498,35.1099743 L44.5331696,35.2458688 C42.9948241,36.8536097 41.7785776,38.1212129 41.5372522,39.5618665 C41.278097,41.1139308 42.1452926,42.8823941 44.3364604,45.3002266 C44.9623306,45.9865798 45.1592056,46.7964996 44.8998016,47.588128 C44.6406464,48.3798138 43.9518326,49.047417 42.9591644,49.4742519 C42.2706822,49.7771762 41.4746403,49.938128 40.6513145,49.938128 L40.6527244,49.9384147 Z M45.6252704,1.29214176 C45.0619291,1.29214176 44.516169,1.42172892 44.0690122,1.675628 C39.8479748,4.01295598 33.1850733,10.3079101 38.1396236,17.375628 C42.2445594,23.2438046 44.2119829,26.5087702 40.3480407,30.9672564 C39.9007181,31.4806165 39.4270238,31.9752266 38.9706618,32.4575087 L38.8189005,32.6182886 C37.1912399,34.3125546 35.3578307,36.2358918 34.8211098,38.628667 C34.2130695,41.3928298 35.4291502,44.3982197 38.5324614,47.8239652 C38.9884088,48.3310753 39.7846165,48.6341716 40.6520609,48.6341716 C41.1172134,48.6341716 41.5730778,48.5413964 41.9754526,48.3682886 C42.5387939,48.1211555 42.9322952,47.7437473 43.084554,47.2922564 C43.2363153,46.8409376 43.1202138,46.3772335 42.7626211,45.9873826 C40.3213374,43.303839 39.3730366,41.2696074 39.6860961,39.4080821 C39.9814087,37.6582541 41.3674952,36.2051578 42.9772431,34.5293551 L43.1022181,34.3934606 C43.6121526,33.8614652 44.1395024,33.3051578 44.6224848,32.7423138 C47.099677,29.8916257 47.895719,27.1398482 47.1351709,24.085089 C46.4466888,21.3271762 44.5952839,18.6743092 42.6277774,15.8669697 C40.8034905,13.2576234 40.9730817,10.4687473 43.1285897,7.79105231 C44.7384205,5.78147663 46.9384618,4.50114406 47.1891582,4.3590569 C48.2625998,3.75922892 48.432191,2.67109819 47.573703,1.92895369 C47.1534155,1.57035277 46.5544144,1.34145369 45.8923039,1.29214176 C45.8029058,1.29839176 45.7135905,1.29214176 45.6240265,1.29214176 L45.6252704,1.29214176 Z M24.6526052,49.9384147 C23.1323385,49.9384147 21.746169,49.4064193 20.9412536,48.5225317 C17.5786213,44.8245386 16.2814353,41.5227037 16.9615416,38.4369812 C17.5516691,35.7592863 19.5103021,33.7126119 21.2451908,31.9069353 L21.2903046,31.8637587 C21.773287,31.3566486 22.2740993,30.8313046 22.7393347,30.2993092 C26.1197969,26.403667 24.483014,23.6953528 20.4587688,17.9443207 C14.9945327,10.1343436 22.2830557,3.22740553 26.9068825,0.667256443 C27.8101524,0.160146351 28.9546648,-0.0687527312 30.1176706,0.0180591954 C31.2805104,0.104469746 32.3260877,0.500398645 33.0689717,1.13113259 C34.5714915,2.42964176 34.2763448,4.3340569 32.4070271,5.37924039 C32.0939676,5.55842617 24.572661,9.90561653 28.3464586,15.3101464 L28.3464586,15.3163964 C30.3676206,18.210261 32.2815545,20.9373253 33.0062769,23.8745386 C33.8290222,27.2073941 32.9347086,30.3240225 30.2516849,33.415823 C29.7152129,34.0403642 29.1425835,34.6339996 28.5881986,35.2151922 L28.5525389,35.2463849 C27.0141935,36.8541257 25.8069033,38.1217289 25.5654121,39.5623826 C25.3062569,41.1144468 26.1734524,42.8829101 28.3646202,45.3007427 C28.9904905,45.9870959 29.1873655,46.7970156 28.9279615,47.5886441 C28.6688063,48.3803298 27.9799924,49.047933 26.9873242,49.4747679 C26.2806805,49.7776922 25.4760968,49.9386441 24.6530198,49.9386441 L24.6526052,49.9384147 Z M29.6254,1.29214176 C29.0620588,1.29214176 28.5162986,1.42172892 28.0691418,1.675628 C27.0588926,2.23824268 23.6243602,4.32866699 21.6478973,7.78508901 C19.7965753,11.0373826 19.9577077,14.2656509 22.1395874,17.3821074 C24.1966579,20.3253986 25.6991777,22.5700087 26.2268592,24.6538964 C26.7902004,26.8739078 26.2088634,28.8216716 24.3396286,30.9737358 C23.8566462,31.5302725 23.338087,32.0683459 22.8463969,32.5877266 L22.8012832,32.6309032 C21.1827448,34.3251693 19.3402134,36.2485064 18.8125318,38.6412817 C18.2044915,41.4054445 19.4205722,44.4108344 22.5238834,47.8365798 C22.9798308,48.3436899 23.7760386,48.6467863 24.6434829,48.6467863 C25.1086355,48.6467863 25.5737051,48.554011 25.9668746,48.3809032 C26.5302159,48.1337702 26.9237172,47.7563619 27.0759761,47.3048711 C27.2277374,46.8535523 27.1116358,46.3898482 26.7540431,45.9999973 C24.3127594,43.3164537 23.3644586,41.2878986 23.6775181,39.4206968 C23.9728307,37.6708688 25.3589172,36.2177725 26.9686651,34.5357197 L27.0043248,34.4987358 C27.5501679,33.9298711 28.1043869,33.3485638 28.6228632,32.7489078 C31.1000555,29.8982197 31.8960974,27.1464422 31.1355494,24.097933 C30.4470672,21.3400202 28.5956623,18.6871532 26.6281558,15.8798138 L26.6281558,15.8735638 C22.2100776,9.56008901 30.8224069,4.58233672 31.1896195,4.37190094 C32.2630612,3.77207296 32.4326524,2.68394222 31.5741644,1.94179773 C31.1538768,1.58319681 30.5548758,1.35429773 29.8927653,1.3049858 C29.8033671,1.2987358 29.7140519,1.29254314 29.6244878,1.29254314 L29.6254,1.29214176 Z M7.86606396,49.9384147 C6.34579722,49.9384147 4.95962775,49.4064193 4.15471236,48.5225317 C0.792080029,44.8245386 -0.505105898,41.5227037 0.175000341,38.4431165 C0.765127885,35.7654216 2.72376087,33.7187473 4.44985906,31.9130707 L4.48551882,31.8760867 C4.97720884,31.3689766 5.47818699,30.8372106 5.94333952,30.2992519 C9.32380173,26.4036097 7.6870188,23.6952954 3.66277355,17.9442633 C-1.80146253,10.1342863 5.48706047,3.22734819 10.1108872,0.667199104 C11.0233624,0.160089012 12.1586696,-0.0688100706 13.3309635,0.018001856 C14.4938033,0.104412406 15.5393806,0.500341306 16.2730594,1.13709589 C17.7755792,2.43560507 17.4804325,4.3400202 15.6111148,5.38520369 C15.2980553,5.56438947 7.77674871,9.91157984 11.5505463,15.3161097 C13.5717083,18.2099743 15.4856422,20.9432886 16.2187405,23.8804445 C17.050608,27.2133 16.1471722,30.3363505 13.4641485,33.4217289 C12.9183054,34.0526349 12.3464224,34.6521188 11.7827494,35.2395041 L11.7647537,35.2581395 C10.2264083,36.8658803 9.01911812,38.1334835 8.77762691,39.5741372 C8.51847169,41.1262014 9.38566727,42.8946647 11.5768351,45.3124973 C12.2027053,45.9988505 12.3995803,46.8087702 12.1401763,47.6003986 C11.8810211,48.3857771 11.1922072,49.0596876 10.1995391,49.4865225 C9.49289533,49.7771188 8.68831166,49.9378413 7.86523466,49.9378413 L7.86606396,49.9384147 Z M12.8387759,1.29214176 C12.2754346,1.29214176 11.7296744,1.42172892 11.2825177,1.675628 C7.07027083,4.01295598 0.398578736,10.3079101 5.35312905,17.375628 C7.41019956,20.3189193 8.91271935,22.5635294 9.44040085,24.647417 C10.0037421,26.8674285 9.42240511,28.8151922 7.55317031,30.9672564 C7.0701879,31.5298711 6.55162866,32.0680592 6.05065052,32.5936326 L6.01499076,32.6248253 C4.39645235,34.3190913 2.55392091,36.2424285 2.0262394,38.6352037 C1.41819905,41.3993665 2.63427976,44.4047564 5.73759101,47.8305019 C6.19353834,48.3376119 6.98974612,48.6407083 7.85719049,48.6407083 C8.32234302,48.6407083 8.78741262,48.547933 9.18058219,48.3748253 C9.74392345,48.1276922 10.1374247,47.750284 10.2896836,47.2987931 C10.4414449,46.8474743 10.3253434,46.3837702 9.96775063,45.9939193 C7.52646696,43.3103757 6.57816616,41.2818207 6.89122567,39.4146188 C7.17741597,37.6647908 8.57262477,36.2116945 10.1731674,34.5358918 L10.1911632,34.5172564 C10.7370063,33.9420844 11.3002646,33.3546991 11.8279461,32.7487358 C14.3051383,29.8980477 15.1011802,27.1462702 14.3406322,24.091511 C13.6521501,21.3335982 11.8007452,18.6807312 9.83323871,15.8733918 C5.41516044,9.55991699 14.0274898,4.5821647 14.3947024,4.37172892 C15.468144,3.77190094 15.6377352,2.6837702 14.7792473,1.94162571 C14.3589597,1.58302479 13.768998,1.35412571 13.0978482,1.30481378 C13.0262799,1.29856378 12.9368817,1.29237112 12.8386929,1.29237112 L12.8387759,1.29214176 Z" id="Shape"></path>
                </g>
            </g>
        </g>
    </g>
</svg>